<mxfile host="drawio-plugin" modified="2022-03-17T23:44:07.705Z" agent="5.0 (Windows NT 6.2; Win64; x64) AppleWebKit/537.36 (KHTML, like Gecko) Chrome/89.0.4389.114 Safari/537.36" etag="3VTCzvIBk9g3JaTKy18G" version="15.5.4" type="embed"><diagram id="C5RBs43oDa-KdzZeNtuy" name="Page-1"><mxGraphModel dx="3963" dy="783" grid="1" gridSize="10" guides="1" tooltips="1" connect="1" arrows="1" fold="1" page="1" pageScale="1" pageWidth="827" pageHeight="1169" math="0" shadow="0"><root><mxCell id="WIyWlLk6GJQsqaUBKTNV-0"/><mxCell id="WIyWlLk6GJQsqaUBKTNV-1" parent="WIyWlLk6GJQsqaUBKTNV-0"/><mxCell id="gppy6M5nfrBGTXlMZeuh-63" value="" style="rounded=0;html=1;jettySize=auto;orthogonalLoop=1;fontSize=11;endArrow=block;endFill=0;endSize=8;strokeWidth=1;shadow=0;labelBackgroundColor=none;edgeStyle=orthogonalEdgeStyle;exitX=-0.014;exitY=0.167;exitDx=0;exitDy=0;exitPerimeter=0;" parent="WIyWlLk6GJQsqaUBKTNV-1" source="gppy6M5nfrBGTXlMZeuh-64" target="gppy6M5nfrBGTXlMZeuh-70" edge="1"><mxGeometry relative="1" as="geometry"><mxPoint x="-1240" y="998" as="sourcePoint"/></mxGeometry></mxCell><mxCell id="gppy6M5nfrBGTXlMZeuh-64" value="Bean Definition" style="swimlane;fontStyle=1;childLayout=stackLayout;horizontal=1;startSize=30;horizontalStack=0;resizeParent=1;resizeParentMax=0;resizeLast=0;collapsible=1;marginBottom=0;rounded=0;" parent="WIyWlLk6GJQsqaUBKTNV-1" vertex="1"><mxGeometry x="-1240" y="945" width="220" height="90" as="geometry"/></mxCell><mxCell id="gppy6M5nfrBGTXlMZeuh-66" value="valuePropertyList: List&lt;Property&gt;" style="text;strokeColor=none;fillColor=none;align=left;verticalAlign=middle;spacingLeft=4;spacingRight=4;overflow=hidden;points=[[0,0.5],[1,0.5]];portConstraint=eastwest;rotatable=0;rounded=0;" parent="gppy6M5nfrBGTXlMZeuh-64" vertex="1"><mxGeometry y="30" width="220" height="30" as="geometry"/></mxCell><mxCell id="gppy6M5nfrBGTXlMZeuh-67" value="refProroryList: List &lt;Property&gt;" style="text;strokeColor=none;fillColor=none;align=left;verticalAlign=middle;spacingLeft=4;spacingRight=4;overflow=hidden;points=[[0,0.5],[1,0.5]];portConstraint=eastwest;rotatable=0;rounded=0;" parent="gppy6M5nfrBGTXlMZeuh-64" vertex="1"><mxGeometry y="60" width="220" height="30" as="geometry"/></mxCell><mxCell id="gppy6M5nfrBGTXlMZeuh-68" value="Facade" style="ellipse;whiteSpace=wrap;html=1;rounded=0;" parent="WIyWlLk6GJQsqaUBKTNV-1" vertex="1"><mxGeometry x="-804" y="565" width="120" height="30" as="geometry"/></mxCell><mxCell id="gppy6M5nfrBGTXlMZeuh-70" value="&lt;table border=&quot;1&quot; width=&quot;100%&quot; cellpadding=&quot;4&quot; style=&quot;width: 100% ; height: 100% ; border-collapse: collapse&quot;&gt;&lt;tbody&gt;&lt;tr&gt;&lt;th style=&quot;text-align: center&quot;&gt;&lt;b&gt;LoadConfiguration&lt;/b&gt;&lt;/th&gt;&lt;/tr&gt;&lt;tr&gt;&lt;td&gt;beanDefenition: List&amp;lt;Bean Definition&amp;gt;&lt;/td&gt;&lt;/tr&gt;&lt;tr&gt;&lt;td&gt;fileXml: String&lt;/td&gt;&lt;/tr&gt;&lt;/tbody&gt;&lt;/table&gt;" style="text;html=1;strokeColor=default;fillColor=none;overflow=fill;rounded=0;align=left;container=0;" parent="WIyWlLk6GJQsqaUBKTNV-1" vertex="1"><mxGeometry x="-1655" y="935" width="220" height="110" as="geometry"/></mxCell><mxCell id="gppy6M5nfrBGTXlMZeuh-71" value="&lt;table border=&quot;1&quot; width=&quot;100%&quot; cellpadding=&quot;4&quot; style=&quot;width: 100% ; height: 100% ; border-collapse: collapse&quot;&gt;&lt;tbody&gt;&lt;tr&gt;&lt;th style=&quot;text-align: center&quot;&gt;&lt;b&gt;InjectValueProperties&lt;/b&gt;&lt;/th&gt;&lt;/tr&gt;&lt;tr&gt;&lt;td&gt;beanDefenition: List&amp;lt;Bean Definition&amp;gt;&lt;/td&gt;&lt;/tr&gt;&lt;tr&gt;&lt;td&gt;bean: Map&amp;lt;Bean,&amp;nbsp;String&amp;gt;&lt;br&gt;&lt;/td&gt;&lt;/tr&gt;&lt;/tbody&gt;&lt;/table&gt;" style="text;html=1;strokeColor=none;fillColor=none;overflow=fill;rounded=0;align=left;container=1;" parent="WIyWlLk6GJQsqaUBKTNV-1" vertex="1"><mxGeometry x="-611" y="775" width="240" height="110" as="geometry"/></mxCell><mxCell id="gppy6M5nfrBGTXlMZeuh-72" style="edgeStyle=orthogonalEdgeStyle;curved=0;rounded=1;sketch=0;orthogonalLoop=1;jettySize=auto;html=1;exitX=0.5;exitY=1;exitDx=0;exitDy=0;" parent="WIyWlLk6GJQsqaUBKTNV-1" source="gppy6M5nfrBGTXlMZeuh-71" target="gppy6M5nfrBGTXlMZeuh-71" edge="1"><mxGeometry relative="1" as="geometry"/></mxCell><mxCell id="gppy6M5nfrBGTXlMZeuh-73" value="&lt;table border=&quot;1&quot; width=&quot;100%&quot; cellpadding=&quot;4&quot; style=&quot;width: 100% ; height: 100% ; border-collapse: collapse&quot;&gt;&lt;tbody&gt;&lt;tr&gt;&lt;th style=&quot;text-align: center&quot;&gt;&lt;b&gt;InjectRefProperties&lt;/b&gt;&lt;/th&gt;&lt;/tr&gt;&lt;tr&gt;&lt;td&gt;beanDefenition: List&amp;lt;Bean Definition&amp;gt;&lt;/td&gt;&lt;/tr&gt;&lt;tr&gt;&lt;td&gt;bean: Map&amp;lt;Bean,&amp;nbsp;String&amp;gt;&lt;br&gt;&lt;/td&gt;&lt;/tr&gt;&lt;/tbody&gt;&lt;/table&gt;" style="text;html=1;strokeColor=none;fillColor=none;overflow=fill;rounded=0;align=left;container=1;" parent="WIyWlLk6GJQsqaUBKTNV-1" vertex="1"><mxGeometry x="-1100" y="775" width="240" height="110" as="geometry"/></mxCell><mxCell id="gppy6M5nfrBGTXlMZeuh-74" style="edgeStyle=orthogonalEdgeStyle;curved=0;rounded=1;sketch=0;orthogonalLoop=1;jettySize=auto;html=1;exitX=0.5;exitY=1;exitDx=0;exitDy=0;" parent="WIyWlLk6GJQsqaUBKTNV-1" source="gppy6M5nfrBGTXlMZeuh-73" target="gppy6M5nfrBGTXlMZeuh-73" edge="1"><mxGeometry relative="1" as="geometry"/></mxCell><mxCell id="gppy6M5nfrBGTXlMZeuh-75" value="" style="rounded=0;html=1;jettySize=auto;orthogonalLoop=1;fontSize=11;endArrow=block;endFill=0;endSize=8;strokeWidth=1;shadow=0;labelBackgroundColor=none;edgeStyle=orthogonalEdgeStyle;entryX=0;entryY=0.15;entryDx=0;entryDy=0;entryPerimeter=0;exitX=1;exitY=0.5;exitDx=0;exitDy=0;" parent="WIyWlLk6GJQsqaUBKTNV-1" source="gppy6M5nfrBGTXlMZeuh-66" target="gppy6M5nfrBGTXlMZeuh-80" edge="1"><mxGeometry relative="1" as="geometry"><mxPoint x="-1080" y="1045" as="sourcePoint"/><mxPoint x="-1161" y="1275" as="targetPoint"/></mxGeometry></mxCell><mxCell id="gppy6M5nfrBGTXlMZeuh-76" value="Property" style="swimlane;fontStyle=1;childLayout=stackLayout;horizontal=1;startSize=30;horizontalStack=0;resizeParent=1;resizeParentMax=0;resizeLast=0;collapsible=1;marginBottom=0;rounded=0;" parent="WIyWlLk6GJQsqaUBKTNV-1" vertex="1"><mxGeometry x="-1291" y="592" width="140" height="90" as="geometry"/></mxCell><mxCell id="-sUOm2GX2W1uSh1ENFH0-61" value="" style="endArrow=diamondThin;endFill=1;endSize=24;html=1;rounded=0;" parent="gppy6M5nfrBGTXlMZeuh-76" edge="1"><mxGeometry width="160" relative="1" as="geometry"><mxPoint x="73" y="155" as="sourcePoint"/><mxPoint x="73" y="90" as="targetPoint"/></mxGeometry></mxCell><mxCell id="gppy6M5nfrBGTXlMZeuh-77" value="- name: String " style="text;strokeColor=none;fillColor=none;align=left;verticalAlign=middle;spacingLeft=4;spacingRight=4;overflow=hidden;points=[[0,0.5],[1,0.5]];portConstraint=eastwest;rotatable=0;rounded=0;" parent="gppy6M5nfrBGTXlMZeuh-76" vertex="1"><mxGeometry y="30" width="140" height="30" as="geometry"/></mxCell><mxCell id="gppy6M5nfrBGTXlMZeuh-78" value="- value: String" style="text;strokeColor=none;fillColor=none;align=left;verticalAlign=middle;spacingLeft=4;spacingRight=4;overflow=hidden;points=[[0,0.5],[1,0.5]];portConstraint=eastwest;rotatable=0;rounded=0;" parent="gppy6M5nfrBGTXlMZeuh-76" vertex="1"><mxGeometry y="60" width="140" height="30" as="geometry"/></mxCell><mxCell id="gppy6M5nfrBGTXlMZeuh-80" value="IocContainer" style="swimlane;fontStyle=1;childLayout=stackLayout;horizontal=1;startSize=30;horizontalStack=0;resizeParent=1;resizeParentMax=0;resizeLast=0;collapsible=1;marginBottom=0;rounded=0;" parent="WIyWlLk6GJQsqaUBKTNV-1" vertex="1"><mxGeometry x="-854" y="905" width="220" height="120" as="geometry"/></mxCell><mxCell id="gppy6M5nfrBGTXlMZeuh-81" value="beans: Map&lt;String, Bean&gt;" style="text;strokeColor=none;fillColor=none;align=left;verticalAlign=middle;spacingLeft=4;spacingRight=4;overflow=hidden;points=[[0,0.5],[1,0.5]];portConstraint=eastwest;rotatable=0;rounded=0;" parent="gppy6M5nfrBGTXlMZeuh-80" vertex="1"><mxGeometry y="30" width="220" height="30" as="geometry"/></mxCell><mxCell id="gppy6M5nfrBGTXlMZeuh-82" value="beanDefenition: List&lt;Bean Definition&gt;" style="text;strokeColor=none;fillColor=none;align=left;verticalAlign=middle;spacingLeft=4;spacingRight=4;overflow=hidden;points=[[0,0.5],[1,0.5]];portConstraint=eastwest;rotatable=0;rounded=0;" parent="gppy6M5nfrBGTXlMZeuh-80" vertex="1"><mxGeometry y="60" width="220" height="30" as="geometry"/></mxCell><mxCell id="gppy6M5nfrBGTXlMZeuh-83" value="beanDefenition: List&lt;Bean Definition&gt;" style="text;strokeColor=none;fillColor=none;align=left;verticalAlign=middle;spacingLeft=4;spacingRight=4;overflow=hidden;points=[[0,0.5],[1,0.5]];portConstraint=eastwest;rotatable=0;rounded=0;" parent="gppy6M5nfrBGTXlMZeuh-80" vertex="1"><mxGeometry y="90" width="220" height="30" as="geometry"/></mxCell><mxCell id="gppy6M5nfrBGTXlMZeuh-84" value="" style="rounded=0;html=1;jettySize=auto;orthogonalLoop=1;fontSize=11;endArrow=block;endFill=0;endSize=8;strokeWidth=1;shadow=0;labelBackgroundColor=none;edgeStyle=orthogonalEdgeStyle;exitX=0;exitY=0.5;exitDx=0;exitDy=0;" parent="WIyWlLk6GJQsqaUBKTNV-1" source="gppy6M5nfrBGTXlMZeuh-71" edge="1"><mxGeometry relative="1" as="geometry"><mxPoint x="-637.4999999999999" y="675.03" as="sourcePoint"/><mxPoint x="-739.5" y="735" as="targetPoint"/></mxGeometry></mxCell><mxCell id="gppy6M5nfrBGTXlMZeuh-85" value="&lt;&lt;interface&gt;&gt;&#10;Bean Factory" style="swimlane;fontStyle=1;childLayout=stackLayout;horizontal=1;startSize=30;horizontalStack=0;resizeParent=1;resizeParentMax=0;resizeLast=0;collapsible=1;marginBottom=0;rounded=0;" parent="WIyWlLk6GJQsqaUBKTNV-1" vertex="1"><mxGeometry x="-841" y="645" width="220" height="90" as="geometry"/></mxCell><mxCell id="gppy6M5nfrBGTXlMZeuh-86" value="beans: Map&lt;String, Bean&gt;" style="text;strokeColor=default;fillColor=none;align=left;verticalAlign=middle;spacingLeft=4;spacingRight=4;overflow=hidden;points=[[0,0.5],[1,0.5]];portConstraint=eastwest;rotatable=0;rounded=0;" parent="gppy6M5nfrBGTXlMZeuh-85" vertex="1"><mxGeometry y="30" width="220" height="30" as="geometry"/></mxCell><mxCell id="-sUOm2GX2W1uSh1ENFH0-32" value="createBeans: List&lt;Bean Definition&gt;" style="text;strokeColor=default;fillColor=none;align=left;verticalAlign=middle;spacingLeft=4;spacingRight=4;overflow=hidden;points=[[0,0.5],[1,0.5]];portConstraint=eastwest;rotatable=0;rounded=0;" parent="gppy6M5nfrBGTXlMZeuh-85" vertex="1"><mxGeometry y="60" width="220" height="30" as="geometry"/></mxCell><mxCell id="gppy6M5nfrBGTXlMZeuh-88" value="" style="rounded=0;html=1;jettySize=auto;orthogonalLoop=1;fontSize=11;endArrow=block;endFill=0;endSize=8;strokeWidth=1;shadow=0;labelBackgroundColor=none;edgeStyle=orthogonalEdgeStyle;exitX=0;exitY=0.5;exitDx=0;exitDy=0;entryX=0.5;entryY=0;entryDx=0;entryDy=0;" parent="WIyWlLk6GJQsqaUBKTNV-1" source="-sUOm2GX2W1uSh1ENFH0-32" target="gppy6M5nfrBGTXlMZeuh-64" edge="1"><mxGeometry relative="1" as="geometry"><mxPoint x="-261" y="685" as="sourcePoint"/><mxPoint x="-1211" y="925" as="targetPoint"/><Array as="points"><mxPoint x="-1130" y="720"/></Array></mxGeometry></mxCell><mxCell id="gppy6M5nfrBGTXlMZeuh-94" value="BeanPostProssesor" style="swimlane;fontStyle=1;childLayout=stackLayout;horizontal=1;startSize=30;horizontalStack=0;resizeParent=1;resizeParentMax=0;resizeLast=0;collapsible=1;marginBottom=0;rounded=0;" parent="WIyWlLk6GJQsqaUBKTNV-1" vertex="1"><mxGeometry x="-1624" y="833" width="220" height="60" as="geometry"/></mxCell><mxCell id="gppy6M5nfrBGTXlMZeuh-95" value="getBeanDefinitionName: List&lt;String&gt;" style="text;fillColor=none;align=left;verticalAlign=middle;spacingLeft=4;spacingRight=4;overflow=hidden;points=[[0,0.5],[1,0.5]];portConstraint=eastwest;rotatable=0;rounded=0;strokeColor=default;" parent="gppy6M5nfrBGTXlMZeuh-94" vertex="1"><mxGeometry y="30" width="220" height="30" as="geometry"/></mxCell><mxCell id="gppy6M5nfrBGTXlMZeuh-96" value="" style="rounded=0;html=1;jettySize=auto;orthogonalLoop=1;fontSize=11;endArrow=block;endFill=0;endSize=8;strokeWidth=1;shadow=0;labelBackgroundColor=none;edgeStyle=orthogonalEdgeStyle;" parent="WIyWlLk6GJQsqaUBKTNV-1" edge="1"><mxGeometry relative="1" as="geometry"><mxPoint x="-861" y="830" as="sourcePoint"/><mxPoint x="-753" y="735" as="targetPoint"/></mxGeometry></mxCell><mxCell id="gppy6M5nfrBGTXlMZeuh-97" value="Process" style="swimlane;fontStyle=1;childLayout=stackLayout;horizontal=1;startSize=30;horizontalStack=0;resizeParent=1;resizeParentMax=0;resizeLast=0;collapsible=1;marginBottom=0;rounded=0;" parent="WIyWlLk6GJQsqaUBKTNV-1" vertex="1"><mxGeometry x="-1280" y="833" width="105" height="60" as="geometry"/></mxCell><mxCell id="gppy6M5nfrBGTXlMZeuh-98" value="" style="text;fillColor=none;align=left;verticalAlign=middle;spacingLeft=4;spacingRight=4;overflow=hidden;points=[[0,0.5],[1,0.5]];portConstraint=eastwest;rotatable=0;rounded=0;strokeColor=default;" parent="gppy6M5nfrBGTXlMZeuh-97" vertex="1"><mxGeometry y="30" width="105" height="30" as="geometry"/></mxCell><mxCell id="gppy6M5nfrBGTXlMZeuh-99" value="Reader" style="swimlane;fontStyle=1;childLayout=stackLayout;horizontal=1;startSize=30;horizontalStack=0;resizeParent=1;resizeParentMax=0;resizeLast=0;collapsible=1;marginBottom=0;rounded=0;" parent="WIyWlLk6GJQsqaUBKTNV-1" vertex="1"><mxGeometry x="-1554" y="741" width="140" height="60" as="geometry"/></mxCell><mxCell id="gppy6M5nfrBGTXlMZeuh-100" value="getProperty: String" style="text;fillColor=none;align=left;verticalAlign=middle;spacingLeft=4;spacingRight=4;overflow=hidden;points=[[0,0.5],[1,0.5]];portConstraint=eastwest;rotatable=0;rounded=0;strokeColor=default;" parent="gppy6M5nfrBGTXlMZeuh-99" vertex="1"><mxGeometry y="30" width="140" height="30" as="geometry"/></mxCell><mxCell id="gppy6M5nfrBGTXlMZeuh-101" value="" style="endArrow=none;dashed=1;html=1;rounded=1;sketch=0;curved=0;exitX=0.464;exitY=-0.011;exitDx=0;exitDy=0;exitPerimeter=0;" parent="WIyWlLk6GJQsqaUBKTNV-1" source="gppy6M5nfrBGTXlMZeuh-85" edge="1"><mxGeometry width="50" height="50" relative="1" as="geometry"><mxPoint x="-790" y="645" as="sourcePoint"/><mxPoint x="-740" y="595" as="targetPoint"/></mxGeometry></mxCell><mxCell id="-sUOm2GX2W1uSh1ENFH0-0" value="Bean" style="swimlane;fontStyle=1;childLayout=stackLayout;horizontal=1;startSize=30;horizontalStack=0;resizeParent=1;resizeParentMax=0;resizeLast=0;collapsible=1;marginBottom=0;rounded=0;" parent="WIyWlLk6GJQsqaUBKTNV-1" vertex="1"><mxGeometry x="-1470" y="269" width="143" height="90" as="geometry"/></mxCell><mxCell id="-sUOm2GX2W1uSh1ENFH0-1" value="- class: String " style="text;strokeColor=none;fillColor=none;align=left;verticalAlign=middle;spacingLeft=4;spacingRight=4;overflow=hidden;points=[[0,0.5],[1,0.5]];portConstraint=eastwest;rotatable=0;rounded=0;" parent="-sUOm2GX2W1uSh1ENFH0-0" vertex="1"><mxGeometry y="30" width="143" height="30" as="geometry"/></mxCell><mxCell id="-sUOm2GX2W1uSh1ENFH0-2" value="- factoryMethod: Srting" style="text;strokeColor=none;fillColor=none;align=left;verticalAlign=middle;spacingLeft=4;spacingRight=4;overflow=hidden;points=[[0,0.5],[1,0.5]];portConstraint=eastwest;rotatable=0;rounded=0;" parent="-sUOm2GX2W1uSh1ENFH0-0" vertex="1"><mxGeometry y="60" width="143" height="30" as="geometry"/></mxCell><mxCell id="-sUOm2GX2W1uSh1ENFH0-4" value="Ref" style="swimlane;fontStyle=1;childLayout=stackLayout;horizontal=1;startSize=30;horizontalStack=0;resizeParent=1;resizeParentMax=0;resizeLast=0;collapsible=1;marginBottom=0;rounded=0;" parent="WIyWlLk6GJQsqaUBKTNV-1" vertex="1"><mxGeometry x="-1840" y="270" width="140" height="60" as="geometry"/></mxCell><mxCell id="-sUOm2GX2W1uSh1ENFH0-5" value="- name: String " style="text;strokeColor=none;fillColor=none;align=left;verticalAlign=middle;spacingLeft=4;spacingRight=4;overflow=hidden;points=[[0,0.5],[1,0.5]];portConstraint=eastwest;rotatable=0;rounded=0;" parent="-sUOm2GX2W1uSh1ENFH0-4" vertex="1"><mxGeometry y="30" width="140" height="30" as="geometry"/></mxCell><mxCell id="-sUOm2GX2W1uSh1ENFH0-13" value="1" style="endArrow=open;html=1;endSize=12;startArrow=diamondThin;startSize=14;startFill=1;edgeStyle=orthogonalEdgeStyle;align=left;verticalAlign=bottom;rounded=0;exitX=0.647;exitY=1.067;exitDx=0;exitDy=0;exitPerimeter=0;" parent="WIyWlLk6GJQsqaUBKTNV-1" edge="1"><mxGeometry x="-1" y="3" relative="1" as="geometry"><mxPoint x="-1393.0700000000002" y="358.0100000000002" as="sourcePoint"/><mxPoint x="-1393" y="426" as="targetPoint"/><Array as="points"><mxPoint x="-1393" y="406"/><mxPoint x="-1393" y="406"/></Array></mxGeometry></mxCell><mxCell id="-sUOm2GX2W1uSh1ENFH0-15" value="Extends" style="endArrow=block;endSize=16;endFill=0;html=1;rounded=0;exitX=0;exitY=0.25;exitDx=0;exitDy=0;" parent="WIyWlLk6GJQsqaUBKTNV-1" source="-sUOm2GX2W1uSh1ENFH0-0" edge="1"><mxGeometry width="160" relative="1" as="geometry"><mxPoint x="-1560" y="590" as="sourcePoint"/><mxPoint x="-1700" y="290" as="targetPoint"/><mxPoint as="offset"/></mxGeometry></mxCell><mxCell id="-sUOm2GX2W1uSh1ENFH0-16" value="ValueElement" style="swimlane;fontStyle=1;childLayout=stackLayout;horizontal=1;startSize=30;horizontalStack=0;resizeParent=1;resizeParentMax=0;resizeLast=0;collapsible=1;marginBottom=0;rounded=0;" parent="WIyWlLk6GJQsqaUBKTNV-1" vertex="1"><mxGeometry x="-1459" y="425" width="140" height="60" as="geometry"/></mxCell><mxCell id="-sUOm2GX2W1uSh1ENFH0-17" value="- name: String " style="text;strokeColor=none;fillColor=none;align=left;verticalAlign=middle;spacingLeft=4;spacingRight=4;overflow=hidden;points=[[0,0.5],[1,0.5]];portConstraint=eastwest;rotatable=0;rounded=0;" parent="-sUOm2GX2W1uSh1ENFH0-16" vertex="1"><mxGeometry y="30" width="140" height="30" as="geometry"/></mxCell><mxCell id="-sUOm2GX2W1uSh1ENFH0-25" value="Ref" style="swimlane;fontStyle=1;childLayout=stackLayout;horizontal=1;startSize=30;horizontalStack=0;resizeParent=1;resizeParentMax=0;resizeLast=0;collapsible=1;marginBottom=0;rounded=0;" parent="WIyWlLk6GJQsqaUBKTNV-1" vertex="1"><mxGeometry x="-1280" y="743" width="107" height="60" as="geometry"/></mxCell><mxCell id="-sUOm2GX2W1uSh1ENFH0-26" value="- name: String " style="text;strokeColor=none;fillColor=none;align=left;verticalAlign=middle;spacingLeft=4;spacingRight=4;overflow=hidden;points=[[0,0.5],[1,0.5]];portConstraint=eastwest;rotatable=0;rounded=0;" parent="-sUOm2GX2W1uSh1ENFH0-25" vertex="1"><mxGeometry y="30" width="107" height="30" as="geometry"/></mxCell><mxCell id="-sUOm2GX2W1uSh1ENFH0-27" value="" style="rounded=0;html=1;jettySize=auto;orthogonalLoop=1;fontSize=11;endArrow=block;endFill=0;endSize=8;strokeWidth=1;shadow=0;labelBackgroundColor=none;edgeStyle=orthogonalEdgeStyle;entryX=0.621;entryY=0.967;entryDx=0;entryDy=0;entryPerimeter=0;" parent="WIyWlLk6GJQsqaUBKTNV-1" edge="1"><mxGeometry relative="1" as="geometry"><mxPoint x="-1290" y="610" as="sourcePoint"/><mxPoint x="-1375.06" y="485.01" as="targetPoint"/></mxGeometry></mxCell><mxCell id="-sUOm2GX2W1uSh1ENFH0-28" value="Constructor" style="swimlane;fontStyle=1;childLayout=stackLayout;horizontal=1;startSize=30;horizontalStack=0;resizeParent=1;resizeParentMax=0;resizeLast=0;collapsible=1;marginBottom=0;rounded=0;" parent="WIyWlLk6GJQsqaUBKTNV-1" vertex="1"><mxGeometry x="-1605" y="587" width="130" height="90" as="geometry"/></mxCell><mxCell id="-sUOm2GX2W1uSh1ENFH0-29" value="- id: Integer" style="text;strokeColor=none;fillColor=none;align=left;verticalAlign=middle;spacingLeft=4;spacingRight=4;overflow=hidden;points=[[0,0.5],[1,0.5]];portConstraint=eastwest;rotatable=0;rounded=0;" parent="-sUOm2GX2W1uSh1ENFH0-28" vertex="1"><mxGeometry y="30" width="130" height="30" as="geometry"/></mxCell><mxCell id="-sUOm2GX2W1uSh1ENFH0-30" value="- type: Srting" style="text;strokeColor=none;fillColor=none;align=left;verticalAlign=middle;spacingLeft=4;spacingRight=4;overflow=hidden;points=[[0,0.5],[1,0.5]];portConstraint=eastwest;rotatable=0;rounded=0;" parent="-sUOm2GX2W1uSh1ENFH0-28" vertex="1"><mxGeometry y="60" width="130" height="30" as="geometry"/></mxCell><mxCell id="-sUOm2GX2W1uSh1ENFH0-33" value="loadConfiguration: String" style="text;fillColor=none;align=left;verticalAlign=middle;spacingLeft=4;spacingRight=4;overflow=hidden;points=[[0,0.5],[1,0.5]];portConstraint=eastwest;rotatable=0;rounded=0;strokeColor=default;" parent="WIyWlLk6GJQsqaUBKTNV-1" vertex="1"><mxGeometry x="-1240" y="1035" width="220" height="30" as="geometry"/></mxCell><mxCell id="-sUOm2GX2W1uSh1ENFH0-36" value="SimpleValue" style="swimlane;fontStyle=1;childLayout=stackLayout;horizontal=1;startSize=30;horizontalStack=0;resizeParent=1;resizeParentMax=0;resizeLast=0;collapsible=1;marginBottom=0;rounded=0;" parent="WIyWlLk6GJQsqaUBKTNV-1" vertex="1"><mxGeometry x="-1780" y="560" width="110" height="60" as="geometry"/></mxCell><mxCell id="-sUOm2GX2W1uSh1ENFH0-37" value="- name: String " style="text;strokeColor=none;fillColor=none;align=left;verticalAlign=middle;spacingLeft=4;spacingRight=4;overflow=hidden;points=[[0,0.5],[1,0.5]];portConstraint=eastwest;rotatable=0;rounded=0;" parent="-sUOm2GX2W1uSh1ENFH0-36" vertex="1"><mxGeometry y="30" width="110" height="30" as="geometry"/></mxCell><mxCell id="-sUOm2GX2W1uSh1ENFH0-39" value="InjectedValue" style="swimlane;fontStyle=1;childLayout=stackLayout;horizontal=1;startSize=30;horizontalStack=0;resizeParent=1;resizeParentMax=0;resizeLast=0;collapsible=1;marginBottom=0;rounded=0;" parent="WIyWlLk6GJQsqaUBKTNV-1" vertex="1"><mxGeometry x="-1800" y="425" width="140" height="60" as="geometry"/></mxCell><mxCell id="-sUOm2GX2W1uSh1ENFH0-43" value="1" style="endArrow=open;html=1;endSize=12;startArrow=diamondThin;startSize=14;startFill=1;edgeStyle=orthogonalEdgeStyle;align=left;verticalAlign=bottom;rounded=0;exitX=0;exitY=0.5;exitDx=0;exitDy=0;" parent="WIyWlLk6GJQsqaUBKTNV-1" source="-sUOm2GX2W1uSh1ENFH0-16" target="-sUOm2GX2W1uSh1ENFH0-39" edge="1"><mxGeometry x="-1" y="3" relative="1" as="geometry"><mxPoint x="-1800" y="540" as="sourcePoint"/><mxPoint x="-1580" y="456" as="targetPoint"/></mxGeometry></mxCell><mxCell id="-sUOm2GX2W1uSh1ENFH0-44" value="Extends" style="endArrow=block;endSize=16;endFill=0;html=1;rounded=0;exitX=0.445;exitY=-0.017;exitDx=0;exitDy=0;exitPerimeter=0;" parent="WIyWlLk6GJQsqaUBKTNV-1" source="-sUOm2GX2W1uSh1ENFH0-36" edge="1"><mxGeometry width="160" relative="1" as="geometry"><mxPoint x="-1880" y="450.5" as="sourcePoint"/><mxPoint x="-1731" y="485" as="targetPoint"/><mxPoint as="offset"/></mxGeometry></mxCell><mxCell id="-sUOm2GX2W1uSh1ENFH0-46" value="" style="endArrow=diamondThin;endFill=1;endSize=24;html=1;rounded=0;entryX=1.007;entryY=0.089;entryDx=0;entryDy=0;entryPerimeter=0;exitX=0;exitY=0.5;exitDx=0;exitDy=0;" parent="WIyWlLk6GJQsqaUBKTNV-1" source="-sUOm2GX2W1uSh1ENFH0-52" target="gppy6M5nfrBGTXlMZeuh-76" edge="1"><mxGeometry width="160" relative="1" as="geometry"><mxPoint x="-990" y="600" as="sourcePoint"/><mxPoint x="-1160" y="580" as="targetPoint"/></mxGeometry></mxCell><mxCell id="-sUOm2GX2W1uSh1ENFH0-48" value="" style="endArrow=diamondThin;endFill=1;endSize=24;html=1;rounded=0;exitX=1;exitY=0.5;exitDx=0;exitDy=0;" parent="WIyWlLk6GJQsqaUBKTNV-1" edge="1"><mxGeometry width="160" relative="1" as="geometry"><mxPoint x="-1401" y="863" as="sourcePoint"/><mxPoint x="-1281" y="863" as="targetPoint"/></mxGeometry></mxCell><mxCell id="-sUOm2GX2W1uSh1ENFH0-49" value="Value" style="swimlane;fontStyle=1;childLayout=stackLayout;horizontal=1;startSize=30;horizontalStack=0;resizeParent=1;resizeParentMax=0;resizeLast=0;collapsible=1;marginBottom=0;rounded=0;" parent="WIyWlLk6GJQsqaUBKTNV-1" vertex="1"><mxGeometry x="-1000" y="633" width="100" height="60" as="geometry"/></mxCell><mxCell id="-sUOm2GX2W1uSh1ENFH0-50" value="- name: String " style="text;strokeColor=none;fillColor=none;align=left;verticalAlign=middle;spacingLeft=4;spacingRight=4;overflow=hidden;points=[[0,0.5],[1,0.5]];portConstraint=eastwest;rotatable=0;rounded=0;" parent="-sUOm2GX2W1uSh1ENFH0-49" vertex="1"><mxGeometry y="30" width="100" height="30" as="geometry"/></mxCell><mxCell id="-sUOm2GX2W1uSh1ENFH0-51" value="List" style="swimlane;fontStyle=1;childLayout=stackLayout;horizontal=1;startSize=30;horizontalStack=0;resizeParent=1;resizeParentMax=0;resizeLast=0;collapsible=1;marginBottom=0;rounded=0;" parent="WIyWlLk6GJQsqaUBKTNV-1" vertex="1"><mxGeometry x="-1000" y="555" width="100" height="60" as="geometry"/></mxCell><mxCell id="-sUOm2GX2W1uSh1ENFH0-52" value="- name: String " style="text;strokeColor=none;fillColor=none;align=left;verticalAlign=middle;spacingLeft=4;spacingRight=4;overflow=hidden;points=[[0,0.5],[1,0.5]];portConstraint=eastwest;rotatable=0;rounded=0;" parent="-sUOm2GX2W1uSh1ENFH0-51" vertex="1"><mxGeometry y="30" width="100" height="30" as="geometry"/></mxCell><mxCell id="-sUOm2GX2W1uSh1ENFH0-53" value="Prop" style="swimlane;fontStyle=1;childLayout=stackLayout;horizontal=1;startSize=30;horizontalStack=0;resizeParent=1;resizeParentMax=0;resizeLast=0;collapsible=1;marginBottom=0;rounded=0;" parent="WIyWlLk6GJQsqaUBKTNV-1" vertex="1"><mxGeometry x="-1272" y="271" width="100" height="60" as="geometry"/></mxCell><mxCell id="-sUOm2GX2W1uSh1ENFH0-54" value="- key: int" style="text;strokeColor=none;fillColor=none;align=left;verticalAlign=middle;spacingLeft=4;spacingRight=4;overflow=hidden;points=[[0,0.5],[1,0.5]];portConstraint=eastwest;rotatable=0;rounded=0;" parent="-sUOm2GX2W1uSh1ENFH0-53" vertex="1"><mxGeometry y="30" width="100" height="30" as="geometry"/></mxCell><mxCell id="-sUOm2GX2W1uSh1ENFH0-55" value="Props" style="swimlane;fontStyle=1;childLayout=stackLayout;horizontal=1;startSize=30;horizontalStack=0;resizeParent=1;resizeParentMax=0;resizeLast=0;collapsible=1;marginBottom=0;rounded=0;" parent="WIyWlLk6GJQsqaUBKTNV-1" vertex="1"><mxGeometry x="-1272" y="412" width="100" height="60" as="geometry"/></mxCell><mxCell id="-sUOm2GX2W1uSh1ENFH0-56" value="- name: String " style="text;strokeColor=none;fillColor=none;align=left;verticalAlign=middle;spacingLeft=4;spacingRight=4;overflow=hidden;points=[[0,0.5],[1,0.5]];portConstraint=eastwest;rotatable=0;rounded=0;" parent="-sUOm2GX2W1uSh1ENFH0-55" vertex="1"><mxGeometry y="30" width="100" height="30" as="geometry"/></mxCell><mxCell id="-sUOm2GX2W1uSh1ENFH0-57" value="" style="endArrow=diamondThin;endFill=1;endSize=24;html=1;rounded=0;exitX=0.5;exitY=1;exitDx=0;exitDy=0;exitPerimeter=0;" parent="WIyWlLk6GJQsqaUBKTNV-1" source="-sUOm2GX2W1uSh1ENFH0-54" target="-sUOm2GX2W1uSh1ENFH0-55" edge="1"><mxGeometry width="160" relative="1" as="geometry"><mxPoint x="-1082" y="549" as="sourcePoint"/><mxPoint x="-1282" y="548.5" as="targetPoint"/></mxGeometry></mxCell><mxCell id="-sUOm2GX2W1uSh1ENFH0-58" value="" style="endArrow=diamondThin;endFill=1;endSize=24;html=1;rounded=0;exitX=0.14;exitY=1.1;exitDx=0;exitDy=0;exitPerimeter=0;" parent="WIyWlLk6GJQsqaUBKTNV-1" edge="1"><mxGeometry width="160" relative="1" as="geometry"><mxPoint x="-1224" y="475" as="sourcePoint"/><mxPoint x="-1223" y="591" as="targetPoint"/></mxGeometry></mxCell><mxCell id="-sUOm2GX2W1uSh1ENFH0-59" value="" style="rounded=0;html=1;jettySize=auto;orthogonalLoop=1;fontSize=11;endArrow=block;endFill=0;endSize=8;strokeWidth=1;shadow=0;labelBackgroundColor=none;edgeStyle=orthogonalEdgeStyle;exitX=1;exitY=0.25;exitDx=0;exitDy=0;" parent="WIyWlLk6GJQsqaUBKTNV-1" source="-sUOm2GX2W1uSh1ENFH0-28" edge="1"><mxGeometry relative="1" as="geometry"><mxPoint x="-1475" y="595.5" as="sourcePoint"/><mxPoint x="-1400" y="485" as="targetPoint"/></mxGeometry></mxCell><mxCell id="-sUOm2GX2W1uSh1ENFH0-63" value="" style="endArrow=diamondThin;endFill=1;endSize=24;html=1;rounded=0;entryX=1;entryY=0.25;entryDx=0;entryDy=0;exitX=0;exitY=0.5;exitDx=0;exitDy=0;" parent="WIyWlLk6GJQsqaUBKTNV-1" source="-sUOm2GX2W1uSh1ENFH0-50" edge="1"><mxGeometry width="160" relative="1" as="geometry"><mxPoint x="-1019" y="677.5" as="sourcePoint"/><mxPoint x="-1151" y="677" as="targetPoint"/></mxGeometry></mxCell></root></mxGraphModel></diagram></mxfile>